# xmcd
#
# Track frame offsets: 
#        150
#        14430
#        31585
#        44560
#        61325
#        73475
#
# Disc length: 1294 seconds
#
# Revision: 0
# Processed by: cddbd v1.5.2PL0 Copyright (c) Steve Scherf et al.
# Submitted via: ExactAudioCopy v0.90b4
#
DISCID=50050c06
DTITLE=Whiskey Dawn - Dear Nashville
DYEAR=2009
DGENRE=Country
TTITLE0=12 Pack Program
TTITLE1=Whiskey Dawn
TTITLE2=Who The Hell Are You?
TTITLE3=That Kind of Want
TTITLE4=Horizontal
TTITLE5=Dear Nashville
EXTD=
EXTT0=
EXTT1=
EXTT2=
EXTT3=
EXTT4=
EXTT5=
PLAYORDER=
